<?xml version="1.0" standalone="no"?>
<!DOCTYPE svg PUBLIC "-//W3C//DTD SVG 20010904//EN"
 "http://www.w3.org/TR/2001/REC-SVG-20010904/DTD/svg10.dtd">
<svg version="1.0" xmlns="http://www.w3.org/2000/svg"
 width="500.000000pt" height="500.000000pt" viewBox="0 0 500.000000 500.000000"
 preserveAspectRatio="xMidYMid meet">

<g transform="translate(0.000000,500.000000) scale(0.100000,-0.100000)"
fill="#000000" stroke="none">
<path d="M1463 4272 l-1023 -587 0 -1185 0 -1185 1011 -580 c555 -319 1020
-584 1032 -588 18 -7 144 62 712 388 380 217 842 482 1027 588 l337 192 0
1185 0 1185 -337 192 c-185 106 -647 370 -1027 588 -379 217 -694 395 -700
394 -5 0 -470 -264 -1032 -587z m267 -1432 l0 -210 180 0 180 0 0 210 0 210
155 0 155 0 0 -570 0 -570 -155 0 -155 0 0 235 0 235 -177 -2 -178 -3 -3 -232
-2 -233 -155 0 -155 0 0 570 0 570 155 0 155 0 0 -210z m1476 195 c203 -39
339 -163 391 -356 22 -86 22 -270 -1 -359 -51 -198 -178 -330 -371 -385 -47
-14 -115 -19 -317 -22 l-258 -5 0 571 0 571 239 0 c170 0 262 -4 317 -15z"/>
<path d="M2960 2479 l0 -322 74 6 c185 14 260 108 260 327 0 128 -20 196 -73
249 -44 44 -96 61 -190 61 l-71 0 0 -321z"/>
</g>
</svg>
